<svg width="52" height="36" viewBox="0 0 52 36" fill="none" xmlns="http://www.w3.org/2000/svg">
<path d="M13 34.3813H1.72763L7.36697 24.5636L7.36712 24.5633L13 14.7636L18.6328 24.5633L18.633 24.5636L24.2723 34.3813H13Z" stroke="#140D91" stroke-width="2"/>
<path d="M39 34.3813H27.7276L33.367 24.5636L33.3671 24.5633L39 14.7636L44.6328 24.5633L44.633 24.5636L50.2723 34.3813H39Z" stroke="#0E74E8" stroke-width="2"/>
<path d="M31.9672 7.0011C31.9672 10.3199 29.2909 13.0022 25.9996 13.0022C22.7083 13.0022 20.032 10.3199 20.032 7.0011C20.032 3.68226 22.7083 1 25.9996 1C29.2909 1 31.9672 3.68226 31.9672 7.0011Z" stroke="#0BF1D7" stroke-width="2"/>
</svg>
